<?xml version="1.0" encoding="utf-8"?>
<!-- Generator: Adobe Illustrator 19.0.1, SVG Export Plug-In . SVG Version: 6.00 Build 0)  -->
<svg version="1.1" id="Слой_1" xmlns="http://www.w3.org/2000/svg" xmlns:xlink="http://www.w3.org/1999/xlink" x="0px" y="0px"
	 viewBox="0 0 2000 1185" style="enable-background:new 0 0 2000 1185;" xml:space="preserve">
<style type="text/css">
	.st0{fill:#FFFFFF;}
	.st1{fill:url(#SVGID_1_);}
	.st2{fill:url(#SVGID_2_);}
	.st3{fill:url(#SVGID_3_);}
	.st4{fill:url(#SVGID_4_);}
	.st5{fill:url(#SVGID_5_);}
	.st6{fill:url(#SVGID_6_);}
	.st7{fill:url(#SVGID_7_);}
	.st8{fill:url(#SVGID_8_);}
	.st9{fill:url(#SVGID_9_);}
	.st10{fill:url(#SVGID_10_);}
	.st11{fill:url(#SVGID_11_);}
	.st12{fill:url(#SVGID_12_);}
	.st13{fill:url(#SVGID_13_);}
	.st14{fill:url(#SVGID_14_);}
	.st15{fill:url(#SVGID_15_);}
</style>
<g>
	<g>
		<path class="st0" d="M192.042511,999.8510132l16.5939178,1.7783203h2.0748444
			c13.1032104,0,22.0591736-8.559082,26.8666534-25.6809692h-8.4944611c-16.5945282,0-29.5340729-3.3743896-38.8192291-10.1256714
			c-9.2845306-6.7488403-17.2535248-17.7297974-23.9038849-32.9417114l-15.5078735-35.5592651
			c-1.1204987-2.6323242-1.1358795-4.8548584-0.0492401-6.6676025c1.0866547-1.8102417,2.9141541-2.7160034,5.4818878-2.7160034
			h20.8420715c6.3217773,0,10.7003784,2.9978638,13.1370392,8.9885864l11.3594055,27.4604492
			c3.3583984,7.9683838,7.5714874,13.9111328,12.6435699,17.8282471c5.0695953,3.9195557,11.7538147,5.8775024,20.0513763,5.8775024
			h12.1494751l17.8786774-50.9680786c0.9211426-2.8304443,2.533905-5.0701904,4.8395081-6.7167969
			c2.3043518-1.6453857,4.8062439-2.4699097,7.5074768-2.4699097h19.9523315c2.5683289,0,4.3466187,0.7088623,5.334198,2.1240845
			c0.9875793,1.4164429,1.4816895,2.6668091,1.4816895,3.753418c0,1.0866699-0.1655273,2.1228638-0.4941101,3.111084
			l-32.2008362,92.1586914c-4.4789124,12.9733887-11.2283325,22.9649658-20.2489166,29.9783325
			c-9.0230255,7.0134277-21.6321411,10.5195313-37.8316345,10.5195313h-23.8048248
			c-2.5683441,0-4.7754822-0.904541-6.6183624-2.7160645c-1.8441162-1.8103027-2.7652435-4.0007935-2.7652435-6.5690918v-11.1619263
			c0-2.5682983,0.8885193-4.7564087,2.6667938-6.5678711c1.7776489-1.8103027,4.015564-2.7172852,6.7168121-2.7172852H192.042511z"
			/>
		<path class="st0" d="M319.661438,1020.2980957V897.3217163c0-2.5683594,0.9211426-4.7736206,2.7652283-6.6183472
			c1.8428955-1.8422852,4.1146545-2.7652588,6.8158875-2.7652588h18.7672119c2.5683594,0,4.7570496,0.9229736,6.5685425,2.7652588
			c1.8108826,1.8447266,2.7166138,4.0499878,2.7166138,6.6183472v44.2525024h18.4712524
			c5.5310974-37.732605,30.1912231-56.5994873,73.9834595-56.5994873c50.0450745,0,75.069458,24.6127319,75.069458,73.8357544
			c0,49.2243042-25.0243835,73.8345337-75.069458,73.8345337c-46.0965881,0-70.9554749-20.9724731-74.5759888-62.9199829
			h-17.8787231v50.7711792c0,2.5682983-0.9057312,4.7255859-2.7166138,6.4694824
			c-1.8114929,1.7449951-4.0001831,2.6175537-6.5685425,2.6175537h-18.7672119c-2.5683289,0-4.8074646-0.904541-6.7167969-2.7160645
			C320.6151733,1025.0568848,319.661438,1022.866394,319.661438,1020.2980957z M449.7496338,911.6451416
			c-25.2219238,0-37.8316345,15.7053833-37.8316345,47.1161499s12.6097107,47.1161499,37.8316345,47.1161499
			c25.2200623,0,37.8310242-15.7053833,37.8310242-47.1161499S474.969696,911.6451416,449.7496338,911.6451416z"/>
		<path class="st0" d="M529.8567505,906.6068726v-9.2851563c0-2.6987915,0.8884888-4.9385376,2.666748-6.7167969
			c1.7776489-1.7782593,4.015564-2.6668091,6.7168579-2.6668091h125.3465576c2.6994019,0,4.9391479,0.8885498,6.7167969,2.6668091
			c1.7782593,1.7782593,2.6674194,4.0180054,2.6674194,6.7167969v9.2851563c0,2.7012329-0.8891602,4.9237671-2.6674194,6.6676025
			c-1.7776489,1.7450562-4.017395,2.6175537-6.7167969,2.6175537h-44.053772v104.604187
			c0,2.5682983-0.9063721,4.7255859-2.7166138,6.4694824c-1.8121338,1.7449951-4.0001831,2.6175537-6.5685425,2.6175537h-18.6687622
			c-2.5683594,0-4.7582397-0.8725586-6.5685425-2.6175537c-1.8120728-1.7438965-2.7166138-3.9011841-2.7166138-6.4694824
			v-104.604187h-44.0537109c-2.7012939,0-4.939209-0.8724976-6.7168579-2.6175537
			C530.7452393,911.5306396,529.8567505,909.3081055,529.8567505,906.6068726z"/>
		<path class="st0" d="M690.0721436,1020.2980957V897.3217163c0-2.5683594,0.9211426-4.7736206,2.7652588-6.6183472
			c1.8428955-1.8422852,4.114624-2.7652588,6.8158569-2.7652588h18.3721924c2.5683594,0,4.757019,0.9229736,6.5685425,2.7652588
			c1.8102417,1.8447266,2.7166138,4.0499878,2.7166138,6.6183472v44.4494019h67.9576416v-44.4494019
			c0-2.5683594,0.9217529-4.7736206,2.7658691-6.6183472c1.8428955-1.8422852,4.0499878-2.7652588,6.6183472-2.7652588h18.3721924
			c2.6994019,0,4.9539185,0.9229736,6.7660522,2.7652588c1.8102417,1.8447266,2.7166138,4.0499878,2.7166138,6.6183472v122.9763794
			c0,2.5682983-0.9383545,4.7587891-2.8150635,6.5690918c-1.8773804,1.8115234-4.0992432,2.7160645-6.6676025,2.7160645h-18.3721924
			c-2.5683594,0-4.7754517-0.8725586-6.6183472-2.6175537c-1.8441162-1.7438965-2.7658691-3.9011841-2.7658691-6.4694824
			v-50.7711792h-67.9576416v50.7711792c0,2.5682983-0.9063721,4.7255859-2.7166138,6.4694824
			c-1.8115234,1.7449951-4.0001831,2.6175537-6.5685425,2.6175537h-18.3721924c-2.5682983,0-4.8074951-0.904541-6.7167969-2.7160645
			C691.0258789,1025.0568848,690.0721436,1022.866394,690.0721436,1020.2980957z"/>
		<path class="st0" d="M860.8556519,1020.1011963v-122.77948c0-2.6987915,0.8885498-4.9385376,2.6668091-6.7167969
			c1.7776489-1.7782593,4.015564-2.6668091,6.7167969-2.6668091H888.80896c2.5683594,0,4.757019,0.9229736,6.5685425,2.7652588
			c1.8102417,1.8447266,2.7166138,4.0499878,2.7166138,6.6183472v38.8192139h40.6959839
			c15.4733887,0,28.3144531,4.1165161,38.522644,12.3469849c10.2062378,8.2329712,15.3103027,19.6901855,15.3103027,34.3741455
			c0,14.6852417-5.1040649,26.1436768-15.3103027,34.3742065c-10.2081909,8.2317505-23.0492554,12.3469849-38.522644,12.3469849
			h-69.0449219c-2.3708496,0-4.4450684-0.9389648-6.2227173-2.8156738
			C861.7442017,1024.8907471,860.8556519,1022.6694946,860.8556519,1020.1011963z M898.0941162,1001.6293335h40.6959839
			c11.0628052,0,16.5938721-6.272583,16.5938721-18.8164673c0-12.545105-5.5310669-18.8164673-16.5938721-18.8164673h-40.6959839
			V1001.6293335z M1012.3778687,1020.4962158V897.3217163c0-2.5683594,0.9217529-4.7736206,2.7658691-6.6183472
			c1.8428955-1.8422852,4.0500488-2.7652588,6.6177368-2.7652588h18.7678223c2.6994629,0,4.9539795,0.9229736,6.7661133,2.7652588
			c1.8101807,1.8447266,2.7165527,4.0499878,2.7165527,6.6183472v122.9763794c0,2.5682983-0.9383545,4.7587891-2.8156738,6.5690918
			c-1.876709,1.8115234-4.0986328,2.7160645-6.6669922,2.7160645h-18.7678223c-2.567688,0-4.7748413-0.8725586-6.6177368-2.6175537
			C1013.2996216,1025.2218018,1012.3778687,1023.0645142,1012.3778687,1020.4962158z"/>
		<path class="st0" d="M1078.3609619,1020.2980957V897.3217163c0-2.6987915,0.8885498-4.9385376,2.666748-6.7167969
			c1.77771-1.7782593,4.015625-2.6668091,6.7167969-2.6668091h17.3846436c2.5683594,0,4.7564697,0.8885498,6.5684814,2.6668091
			c1.8103027,1.7782593,2.7160645,3.9515381,2.7160645,6.5198975v98.8743286l56.2038574-98.6774292
			c1.5142822-2.5683594,3.588501-4.7736206,6.2226563-6.6183472c2.6335449-1.8422852,5.0701904-2.7652588,7.3100586-2.7652588
			h29.1383057c2.5683594,0,4.7416992,0.9229736,6.5194092,2.7652588c1.7781982,1.8447266,2.6673584,4.0499878,2.6673584,6.6183472
			v122.9763794c0,2.5682983-0.9229736,4.7587891-2.7658691,6.5690918c-1.8447266,1.8115234-4.0500488,2.7160645-6.6184082,2.7160645
			h-17.3845215c-2.567749,0-4.7583008-0.904541-6.5686035-2.7160645c-1.8114014-1.8103027-2.7159424-4.0007935-2.7159424-6.5690918
			v-91.6640625l-51.5612793,91.6640625c-1.5155029,2.5682983-3.6550293,4.7587891-6.420166,6.5690918
			c-2.7658691,1.8115234-5.4333496,2.7160645-8.0010986,2.7160645h-32.6949463c-2.5682373,0-4.7753906-0.904541-6.6182861-2.7160645
			C1079.2821045,1025.0568848,1078.3609619,1022.866394,1078.3609619,1020.2980957z M1117.2785645,847.5387573
			c0-3.3583984,1.8103027-5.0369873,5.4327393-5.0369873h8.0993652c3.2255859,0,5.4979248,1.6785889,6.815918,5.0369873
			c1.9086914,4.6764526,6.1734619,7.0134277,12.7912598,7.0134277s10.8486328-2.3369751,12.692749-7.0134277
			c1.3826904-3.3583984,3.6870117-5.0369873,6.9143066-5.0369873h8.0994873c3.6212158,0,5.4326172,1.6785889,5.4326172,5.0369873
			c0,9.0230103-3.0291748,16.1668701-9.0870361,21.434021c-6.0595703,5.2695923-14.0759277,7.9031372-24.052124,7.9031372
			s-17.9943848-2.6335449-24.0522461-7.9031372C1120.3066406,863.7056274,1117.2785645,856.5617676,1117.2785645,847.5387573z"/>
		<path class="st0" d="M1307.4224854,1020.2980957v-9.4820557c0-2.5683594,0.904541-4.7416992,2.7166748-6.5199585
			c1.8103027-1.7770386,4.0002441-2.666748,6.5684814-2.666748h7.7044678l18.3721924-74.7735596
			c6.3863525-25.9442749,27.7883301-38.9176636,64.2047119-38.9176636h53.3389893
			c2.5683594,0,4.7563477,0.8885498,6.5684814,2.6668091c1.8103027,1.7782593,2.7166748,3.9515381,2.7166748,6.5198975v123.3713989
			c0,2.5682983-0.9063721,4.7255859-2.7166748,6.4694824c-1.8121338,1.7449951-4.0001221,2.6175537-6.5684814,2.6175537
			h-143.6203613c-2.5682373,0-4.7581787-0.904541-6.5684814-2.7160645
			C1308.3270264,1025.0568848,1307.4224854,1022.866394,1307.4224854,1020.2980957z M1362.4406738,1001.6293335h70.0324707
			v-85.7373047h-29.5340576c-6.2565918,0-11.4259033,1.7130737-15.5079346,5.1367188
			c-4.0838623,3.4248657-6.8817139,8.1984863-8.3959961,14.3221436L1362.4406738,1001.6293335z"/>
		<path class="st0" d="M1628.6920166,1014.9152832c-13.4674072,11.8201904-33.2229004,17.7297363-59.265625,17.7297363
			c-26.0445557,0-45.8166504-5.9095459-59.3148193-17.7297363c-13.5001221-11.8190308-20.2495117-30.5370483-20.2495117-56.1539917
			c0-25.6157227,6.7493896-44.3164673,20.2495117-56.105957c13.4981689-11.7858276,33.2702637-17.680603,59.3148193-17.680603
			c26.0427246,0,45.7982178,5.8947754,59.265625,17.680603c13.4663086,11.7894897,20.199707,30.4902344,20.199707,56.105957
			C1648.8917236,984.3782349,1642.1583252,1003.0962524,1628.6920166,1014.9152832z M1601.6765137,923.4973755
			c-6.6516113-7.9019165-17.4012451-11.8522339-32.2501221-11.8522339c-14.850708,0-25.6169434,3.9503174-32.2999268,11.8522339
			c-6.6842041,7.9019165-10.026001,19.6741943-10.026001,35.3131104c0,15.6401978,3.3417969,27.3939819,10.026001,35.2626953
			c6.6829834,7.8699341,17.4492188,11.8042603,32.2999268,11.8042603c14.848877,0,25.5985107-3.9343262,32.2501221-11.8042603
			c6.651001-7.8687134,9.9768066-19.6224976,9.9768066-35.2626953
			C1611.6533203,943.1715698,1608.3275146,931.399292,1601.6765137,923.4973755z"/>
		<path class="st0" d="M1669.1412354,1020.1011963V897.5198364c0-2.7000122,0.8885498-4.9717407,2.666748-6.8164673
			c1.77771-1.8422852,3.9510498-2.7652588,6.5194092-2.7652588h40.2017822c2.5683594,0,5.0037842,0.9229736,7.3093262,2.7652588
			c2.3044434,1.8447266,3.8525391,4.0499878,4.6425781,6.6183472l29.1390381,84.3552856l29.1390381-84.3552856
			c0.7901611-2.5683594,2.3364258-4.7736206,4.6419678-6.6183472c2.3044434-1.8422852,4.7416992-2.7652588,7.3094482-2.7652588
			h40.2023926c2.567749,0,4.7237549,0.9229736,6.4694824,2.7652588C1849.1268311,892.5480957,1850,894.8198242,1850,897.5198364
			v122.5813599c0,2.7000122-0.9057617,4.9556885-2.7160645,6.7659912c-1.8120117,1.8115234-4.0007324,2.7160645-6.5684814,2.7160645
			h-17.7802734c-2.567749,0-4.7581787-0.904541-6.5684814-2.7160645c-1.8115234-1.8103027-2.7160645-4.065979-2.7160645-6.7659912
			v-96.5053711l-34.8681641,97.09729c-0.9230957,2.4366455-2.5357666,4.5286865-4.84021,6.272583
			c-2.305542,1.7449951-4.7409668,2.6175537-7.3093262,2.6175537h-14.1246338c-2.5683594,0-4.9884033-0.8725586-7.2601318-2.6175537
			c-2.2717285-1.7438965-3.9017334-3.8359375-4.8892822-6.272583l-34.7692871-97.09729v96.5053711
			c0,2.7000122-0.9063721,4.9556885-2.7165527,6.7659912c-1.8121338,1.8115234-4.0002441,2.7160645-6.5686035,2.7160645h-17.779541
			c-2.5683594,0-4.7755127-0.904541-6.6184082-2.7160645
			C1670.0623779,1025.0568848,1669.1412354,1022.8012085,1669.1412354,1020.1011963z"/>
	</g>
	<g>
		
			<linearGradient id="SVGID_1_" gradientUnits="userSpaceOnUse" x1="1331.8115234" y1="834.7282104" x2="1331.8115234" y2="152.35495">
			<stop  offset="0" style="stop-color:#E89600"/>
			<stop  offset="1" style="stop-color:#F7BC36"/>
		</linearGradient>
		<polygon class="st1" points="1488.7858887,486.3532715 1488.7858887,541.2835083 1406.5096436,419.5146484 
			1174.8370361,541.2835083 1174.8370361,486.3532715 1406.5096436,341.7851868 		"/>
		
			<linearGradient id="SVGID_2_" gradientUnits="userSpaceOnUse" x1="1331.8115234" y1="834.7282104" x2="1331.8115234" y2="152.35495">
			<stop  offset="0" style="stop-color:#E89600"/>
			<stop  offset="1" style="stop-color:#F7BC36"/>
		</linearGradient>
		<polygon class="st2" points="1488.7858887,557.5869751 1488.7858887,614.3361206 1406.5096436,522.9012451 
			1174.8370361,614.3361206 1174.8370361,557.5869751 1406.5096436,442.5737 		"/>
		
			<linearGradient id="SVGID_3_" gradientUnits="userSpaceOnUse" x1="1331.8115234" y1="834.7282104" x2="1331.8115234" y2="152.35495">
			<stop  offset="0" style="stop-color:#E89600"/>
			<stop  offset="1" style="stop-color:#F7BC36"/>
		</linearGradient>
		<polygon class="st3" points="1488.7858887,630.6395874 1488.7858887,686.3278198 1406.5096436,624.7504272 
			1174.8370361,686.3278198 1174.8370361,630.6395874 1406.5096436,545.9603271 		"/>
		
			<linearGradient id="SVGID_4_" gradientUnits="userSpaceOnUse" x1="1331.8115234" y1="834.7282104" x2="1331.8115234" y2="152.35495">
			<stop  offset="0" style="stop-color:#E89600"/>
			<stop  offset="1" style="stop-color:#F7BC36"/>
		</linearGradient>
		<polygon class="st4" points="1488.7858887,702.6314697 1488.7858887,760.5280762 1406.5096436,729.7393799 
			1174.8370361,760.5280762 1174.8370361,702.6314697 1406.5096436,647.8097534 		"/>
		
			<linearGradient id="SVGID_5_" gradientUnits="userSpaceOnUse" x1="1331.8115234" y1="834.7282104" x2="1331.8115234" y2="152.35495">
			<stop  offset="0" style="stop-color:#E89600"/>
			<stop  offset="1" style="stop-color:#F7BC36"/>
		</linearGradient>
		<polygon class="st5" points="1406.5096436,752.7984619 1488.7858887,776.8317261 1488.7858887,834.7282104 
			1174.8370361,834.7282104 1174.8370361,776.8317261 		"/>
	</g>
	<g>
		<linearGradient id="SVGID_6_" gradientUnits="userSpaceOnUse" x1="808.631897" y1="834.7282104" x2="808.631897" y2="152.35495">
			<stop  offset="0" style="stop-color:#E89600"/>
			<stop  offset="1" style="stop-color:#F7BC36"/>
		</linearGradient>
		<polygon class="st6" points="789.4377441,270.8760376 827.8260498,244.9590759 827.8260498,834.7282104 789.4377441,834.7282104 
					"/>
		
			<linearGradient id="SVGID_7_" gradientUnits="userSpaceOnUse" x1="875.7520752" y1="834.7282104" x2="875.7520752" y2="152.35495">
			<stop  offset="0" style="stop-color:#E89600"/>
			<stop  offset="1" style="stop-color:#F7BC36"/>
		</linearGradient>
		<polygon class="st7" points="855.1072388,226.5335083 896.3969116,198.6461792 896.3969116,834.7282104 855.1072388,834.7282104 
					"/>
		
			<linearGradient id="SVGID_8_" gradientUnits="userSpaceOnUse" x1="944.3119507" y1="834.7282104" x2="944.3119507" y2="152.35495">
			<stop  offset="0" style="stop-color:#E89600"/>
			<stop  offset="1" style="stop-color:#F7BC36"/>
		</linearGradient>
		<polygon class="st8" points="923.6779175,180.2206116 964.9459839,152.35495 964.9459839,834.7282104 923.6779175,834.7282104 		
			"/>
		
			<linearGradient id="SVGID_9_" gradientUnits="userSpaceOnUse" x1="1006.9718628" y1="834.7282104" x2="1006.9718628" y2="152.35495">
			<stop  offset="0" style="stop-color:#E89600"/>
			<stop  offset="1" style="stop-color:#F7BC36"/>
		</linearGradient>
		<polygon class="st9" points="986.3378296,152.35495 1027.605835,180.2206116 1027.605835,834.7282104 986.3378296,834.7282104 		
			"/>
		
			<linearGradient id="SVGID_10_" gradientUnits="userSpaceOnUse" x1="1075.5316162" y1="834.7282104" x2="1075.5316162" y2="152.35495">
			<stop  offset="0" style="stop-color:#E89600"/>
			<stop  offset="1" style="stop-color:#F7BC36"/>
		</linearGradient>
		<polygon class="st10" points="1054.8868408,198.6461792 1096.1763916,226.5335083 1096.1763916,834.7282104 
			1054.8868408,834.7282104 		"/>
		
			<linearGradient id="SVGID_11_" gradientUnits="userSpaceOnUse" x1="1142.6518555" y1="834.7282104" x2="1142.6518555" y2="152.35495">
			<stop  offset="0" style="stop-color:#E89600"/>
			<stop  offset="1" style="stop-color:#F7BC36"/>
		</linearGradient>
		<polygon class="st11" points="1161.8460693,270.8760376 1161.8460693,834.7282104 1123.4577637,834.7282104 
			1123.4577637,244.9590759 		"/>
	</g>
	<g>
		
			<linearGradient id="SVGID_12_" gradientUnits="userSpaceOnUse" x1="643.8303833" y1="834.7282104" x2="643.8303833" y2="152.35495">
			<stop  offset="0" style="stop-color:#E89600"/>
			<stop  offset="1" style="stop-color:#F7BC36"/>
		</linearGradient>
		<polygon class="st12" points="599.9858398,766.4389648 776.4467773,785.8171997 776.4467773,834.7282104 511.2140808,834.7282104 
			511.2140808,785.8171997 		"/>
		
			<linearGradient id="SVGID_13_" gradientUnits="userSpaceOnUse" x1="643.8303833" y1="834.7282104" x2="643.8303833" y2="152.35495">
			<stop  offset="0" style="stop-color:#E89600"/>
			<stop  offset="1" style="stop-color:#F7BC36"/>
		</linearGradient>
		<polygon class="st13" points="776.4467773,724.737854 776.4467773,769.2969971 599.9858398,743.3798828 511.2140808,769.2969971 
			511.2140808,724.737854 599.9858398,681.1530762 		"/>
		
			<linearGradient id="SVGID_14_" gradientUnits="userSpaceOnUse" x1="643.8303833" y1="834.7282104" x2="643.8303833" y2="152.35495">
			<stop  offset="0" style="stop-color:#E89600"/>
			<stop  offset="1" style="stop-color:#F7BC36"/>
		</linearGradient>
		<polygon class="st14" points="776.4467773,662.2078857 776.4467773,708.2176514 599.9858398,658.0942993 511.2140808,708.2176514 
			511.2140808,662.2078857 599.9858398,593.8535156 		"/>
		
			<linearGradient id="SVGID_15_" gradientUnits="userSpaceOnUse" x1="643.8303833" y1="834.7282104" x2="643.8303833" y2="152.35495">
			<stop  offset="0" style="stop-color:#E89600"/>
			<stop  offset="1" style="stop-color:#F7BC36"/>
		</linearGradient>
		<polygon class="st15" points="776.4467773,597.9893188 776.4467773,645.6876831 599.9858398,570.7730103 511.2140808,645.6876831 
			511.2140808,597.9893188 599.9858398,504.1725464 		"/>
	</g>
</g>
</svg>
