<svg width="126" height="126" viewBox="0 0 126 126" fill="none" xmlns="http://www.w3.org/2000/svg">
<g filter="url(#filter0_d_23_170)">
<circle cx="61" cy="59" r="53" fill="black"/>
<circle cx="61" cy="59" r="50" stroke="white" stroke-width="6"/>
</g>
<g clip-path="url(#clip0_23_170)">
<path fill-rule="evenodd" clip-rule="evenodd" d="M83.4535 61.8349H82.7258V55.2186C82.7258 54.1415 82.2103 53.2183 81.4219 52.6643V51.7411C81.4219 50.4486 80.3606 49.3715 79.0871 49.3715H78.5413L80.6032 46.2942C81.3006 45.2479 81.0277 43.8323 80.0271 43.1245L65.9574 33.3999C65.4419 33.0614 64.8658 32.9383 64.2594 33.0307C63.6832 33.1537 63.1677 33.4923 62.8342 33.9846L50.6748 52.0796H47.309L48.1277 43.7092C48.1277 43.6168 48.1884 43.5245 48.2794 43.4937C49.3103 43.0937 50.22 42.3551 50.8265 41.3704C50.8871 41.3088 50.9781 41.278 51.069 41.278L56.3755 41.8012C56.7394 41.832 57.0729 41.555 57.1335 41.1857C57.1639 40.7857 56.891 40.4471 56.4968 40.4164L51.1903 39.8624C50.5839 39.8009 50.0077 40.1086 49.6742 40.6318C49.2194 41.3396 48.5523 41.8935 47.7942 42.1705C47.1877 42.4167 46.7935 42.9398 46.7329 43.5553L45.9142 52.0796H45.0348L46.3084 38.8469C46.369 38.3545 46.7935 38.016 47.2484 38.0468L57.9826 39.1239C58.3465 39.1546 58.68 38.8777 58.7406 38.5084C58.771 38.1083 58.4981 37.7698 58.1039 37.739L47.4 36.662C46.1568 36.5389 45.0652 37.4621 44.9439 38.693L43.9129 49.3715H42.1239C40.8503 49.3715 39.789 50.4486 39.789 51.7411V52.3566C38.7277 52.849 38 53.9568 38 55.2186V79.1298C38 80.8531 39.3645 82.238 41.0626 82.238H79.6329C81.331 82.238 82.7258 80.8531 82.7258 79.1298V72.4827H83.4535C84.3026 72.4827 85 71.7749 85 70.9132V63.4044C85 62.5427 84.3026 61.8349 83.4535 61.8349ZM79.0871 50.7871C79.6026 50.7871 80.0271 51.218 80.0271 51.7411V52.1104C79.9058 52.0796 79.7845 52.0796 79.6329 52.0796H76.7219L77.6013 50.7871H79.0871ZM63.9865 34.7848C64.1077 34.6001 64.2897 34.477 64.5323 34.4155C64.5626 34.4155 64.6232 34.4155 64.6839 34.4155C64.8658 34.4155 65.0174 34.4462 65.169 34.5693L79.2387 44.2939C79.6329 44.5708 79.7239 45.094 79.451 45.494L75.0542 52.0796H73.9929L76.1458 48.8484C76.5097 48.3252 76.54 47.679 76.2368 47.1251C75.8123 46.3865 75.6606 45.5248 75.7516 44.6939C75.8426 44.0784 75.5697 43.463 75.0542 43.1245L67.7768 38.0776C67.2613 37.7083 66.5942 37.6775 66.0787 37.9852C65.351 38.3853 64.5019 38.5392 63.6832 38.4468C63.0768 38.3545 62.44 38.6315 62.1065 39.1546L53.4039 52.0796H52.3426L63.9865 34.7848ZM64.2897 46.6942C61.2574 46.6942 58.8013 49.0946 58.589 52.0796H55.1019L63.2587 39.924C63.289 39.8624 63.38 39.8317 63.4406 39.8317C63.471 39.8317 63.471 39.8317 63.471 39.8317C64.5929 39.9855 65.7452 39.7701 66.7458 39.2162C66.8065 39.1854 66.8974 39.1854 66.9884 39.247L74.2961 44.2939C74.3568 44.3246 74.3871 44.417 74.3871 44.5093C74.2355 45.6479 74.4781 46.8173 75.0239 47.8021C75.0542 47.8944 75.0542 47.9867 74.9935 48.079L72.2948 52.0796H69.96C69.7477 49.0946 67.2916 46.6942 64.2897 46.6942ZM68.5652 52.0796H59.9839C60.1658 49.8639 62.0155 48.1098 64.2897 48.1098C66.5335 48.1098 68.3832 49.8639 68.5652 52.0796ZM41.1839 51.7411C41.1839 51.218 41.6084 50.7871 42.1239 50.7871H43.7613L43.64 52.0796H41.1839V51.7411ZM39.3948 55.2186C39.3948 54.2646 40.1529 53.4952 41.0626 53.4952H79.6329C80.5729 53.4952 81.331 54.2646 81.331 55.2186V57.1573H39.3948V55.2186ZM81.331 79.1298C81.331 80.053 80.5729 80.8224 79.6329 80.8224H41.0626C40.1529 80.8224 39.3948 80.053 39.3948 79.1298V77.1603H43.1245C43.4884 77.1603 43.7916 76.8526 43.7916 76.4833C43.7916 76.0832 43.4884 75.7755 43.1245 75.7755H39.3948V58.5421H81.331V61.8349H74.751C72.689 61.8349 70.9 63.0659 70.051 64.8508C70.0206 64.8815 70.0206 64.8815 70.0206 64.9123C69.9297 65.1277 69.8387 65.3431 69.7477 65.5893C69.5961 66.0817 69.5052 66.6049 69.5052 67.1588C69.5052 70.0823 71.8703 72.4827 74.751 72.4827H81.331V75.7755H47.5516C47.1574 75.7755 46.8542 76.0832 46.8542 76.4833C46.8542 76.8526 47.1574 77.1603 47.5516 77.1603H81.331V79.1298ZM83.6052 70.9132C83.6052 71.0055 83.5445 71.0671 83.4535 71.0671H74.751C73.2955 71.0671 72.0219 70.2362 71.3548 69.036C71.3548 68.9745 71.3245 68.9129 71.2942 68.8514C71.2336 68.759 71.1729 68.6359 71.1426 68.5128C70.991 68.082 70.9 67.6204 70.9 67.1588C70.9 66.6972 70.991 66.2356 71.1426 65.8048C71.1729 65.6817 71.2336 65.5893 71.2942 65.4662C71.3245 65.4047 71.3548 65.3431 71.3548 65.2816C72.0219 64.0814 73.2955 63.2505 74.751 63.2505H83.4535C83.5445 63.2505 83.6052 63.3121 83.6052 63.4044V70.9132Z" fill="white"/>
<path fill-rule="evenodd" clip-rule="evenodd" d="M74.9328 64.3279C73.3863 64.3279 72.1128 65.5896 72.1128 67.1591C72.1128 68.7285 73.3863 70.021 74.9328 70.021C76.4792 70.021 77.7225 68.7285 77.7225 67.1591C77.7225 65.5896 76.4792 64.3279 74.9328 64.3279ZM74.9328 68.6054C74.1444 68.6054 73.5076 67.9592 73.5076 67.1591C73.5076 66.359 74.1444 65.7127 74.9328 65.7127C75.7212 65.7127 76.358 66.359 76.358 67.1591C76.358 67.9592 75.7212 68.6054 74.9328 68.6054Z" fill="white"/>
</g>
<defs>
<filter id="filter0_d_23_170" x="0" y="0" width="126" height="126" filterUnits="userSpaceOnUse" color-interpolation-filters="sRGB">
<feFlood flood-opacity="0" result="BackgroundImageFix"/>
<feColorMatrix in="SourceAlpha" type="matrix" values="0 0 0 0 0 0 0 0 0 0 0 0 0 0 0 0 0 0 127 0" result="hardAlpha"/>
<feOffset dx="2" dy="4"/>
<feGaussianBlur stdDeviation="5"/>
<feComposite in2="hardAlpha" operator="out"/>
<feColorMatrix type="matrix" values="0 0 0 0 0 0 0 0 0 0 0 0 0 0 0 0 0 0 0.1 0"/>
<feBlend mode="normal" in2="BackgroundImageFix" result="effect1_dropShadow_23_170"/>
<feBlend mode="normal" in="SourceGraphic" in2="effect1_dropShadow_23_170" result="shape"/>
</filter>
<clipPath id="clip0_23_170">
<rect width="47" height="49.2381" fill="white" transform="translate(38 33)"/>
</clipPath>
</defs>
</svg>
